<?xml version="1.0" encoding="UTF-8"?>
<svg width="7px" height="7px" viewBox="0 0 7 7" version="1.1" xmlns="http://www.w3.org/2000/svg" xmlns:xlink="http://www.w3.org/1999/xlink">
    <!-- Generator: Sketch 43.2 (39069) - http://www.bohemiancoding.com/sketch -->
    <title>Shape</title>
    <desc>Created with Sketch.</desc>
    <defs></defs>
    <g id="Page-1" stroke="none" stroke-width="1" fill="none" fill-rule="evenodd">
        <g id="paintbrush" transform="translate(-3.000000, 0.000000)" fill-rule="nonzero" fill="#656565">
            <path d="M9.7240625,0.275803571 C9.43488839,-0.0132142857 9.05522321,-0.110178571 8.72138393,0.156383929 L4.81245536,3.59598214 C4.61941964,3.54305804 4.44359375,3.55426339 4.30109375,3.64834821 L2.98875,4.74107143 C2.95279018,4.77703125 2.95426339,4.83714286 2.99022321,4.87308036 C3.00136161,4.88426339 3.01397321,4.89071429 3.02810268,4.89495536 C3.04243304,4.89571429 3.05631696,4.89627232 3.07049107,4.89725446 C4.14174107,4.97354911 5.10370536,5.71734375 5.065,6.89484375 C5.06464286,6.90611607 5.06435268,6.91732143 5.06379464,6.92868304 C5.06654018,6.94761161 5.07495536,6.96582589 5.08944196,6.98035714 C5.12504464,7.01591518 5.18247768,7.01618304 5.21848214,6.98133929 C5.22111607,6.97895089 6.34964286,5.6959375 6.34964286,5.6959375 C6.44375,5.55366071 6.455,5.37808036 6.40220982,5.18533482 L9.84348214,1.27803571 C10.1102455,0.944375 10.0132143,0.564910714 9.7240625,0.275803571 Z" id="Shape"></path>
        </g>
    </g>
</svg>