<svg height='100px' width='100px'  fill="#000000" xmlns:x="http://ns.adobe.com/Extensibility/1.0/" xmlns:i="http://ns.adobe.com/AdobeIllustrator/10.0/" xmlns:graph="http://ns.adobe.com/Graphs/1.0/" xmlns="http://www.w3.org/2000/svg" xmlns:xlink="http://www.w3.org/1999/xlink" version="1.1" x="0px" y="0px" viewBox="-949 951 100 100" style="enable-background:new -949 951 100 100;" xml:space="preserve"><g><g i:extraneous="self"><g><path d="M-852.1,999.1c-4.6-6-20.7-24-46.9-24c-26.2,0-42.2,18-46.9,24c-0.9,1.1-0.9,2.7,0,3.8c4.6,6,20.7,24,46.9,24     c26.2,0,42.2-18,46.9-24C-851.3,1001.8-851.3,1000.2-852.1,999.1z M-899,1020.3c-10.7,0-19.3-8.6-19.3-19.3s8.6-19.3,19.3-19.3     c10.7,0,19.3,8.6,19.3,19.3S-888.3,1020.3-899,1020.3z"></path><circle cx="-899" cy="1001" r="12.4"></circle></g></g></g></svg>