<svg height='100px' width='100px'  fill="#000000" xmlns="http://www.w3.org/2000/svg" xmlns:xlink="http://www.w3.org/1999/xlink" version="1.1" x="0px" y="0px" viewBox="0 0 20 20" enable-background="new 0 0 20 20" xml:space="preserve"><g><path d="M17.8,8.5c-0.2-1.1-0.6-2.1-1.2-2.9l1.1-1.9l-1.4-1.4l-1.9,1.1c-0.9-0.6-1.9-1-2.9-1.2L11,0H9L8.5,2.2   C7.4,2.4,6.4,2.8,5.5,3.4L3.6,2.2L2.2,3.6l1.1,1.9c-0.6,0.9-1,1.9-1.2,2.9L0,9v2l2.2,0.5c0.2,1.1,0.6,2.1,1.2,2.9l-1.1,1.9l1.4,1.4   l1.9-1.1c0.9,0.6,1.9,1,2.9,1.2L9,20h2l0.5-2.2c1.1-0.2,2.1-0.6,2.9-1.2l1.9,1.1l1.4-1.4l-1.1-1.9c0.6-0.9,1-1.9,1.2-2.9L20,11V9   L17.8,8.5z M10,15c-2.8,0-5-2.2-5-5c0-2.8,2.2-5,5-5s5,2.2,5,5C15,12.8,12.8,15,10,15z"></path></g></svg>