<svg height='100px' width='100px'  fill="#000000" xmlns="http://www.w3.org/2000/svg" xmlns:xlink="http://www.w3.org/1999/xlink" version="1.1" x="0px" y="0px" viewBox="0 0 100 100" style="enable-background:new 0 0 100 100;" xml:space="preserve"><path d="M87.43,33.19C69.31,48.66,48.82,61.28,26.74,70.29c-6.28,2.56-12.66,4.86-19.14,6.85c-0.91,0.28-2.48,0.26-2.59-0.98  c-0.11-1.24,1.57-2.2,2.52-2.5c21.77-6.7,42.41-16.85,61-30.02c5.24-3.71,10.31-7.64,15.19-11.81c0.91-0.78,2.38-1.62,3.62-1.1  C88.44,31.2,88.24,32.5,87.43,33.19z"></path><path d="M93.55,26.42c1.62,0.87,1.83,2.2,0.89,3.76c-2.2,3.64-5.04,7.01-7.53,10.46c-2.6,3.6-5.2,7.2-7.8,10.8  c-0.75,1.03-2.16,1.85-3.47,1.69c-1.1-0.14-1.73-1.09-1.01-2.08c4.22-5.84,8.44-11.68,12.65-17.52c0.56-0.78,1.12-1.56,1.69-2.34  c-0.02,0.03,1.02-1.28,1.02-1.24c-0.04-0.61-4.15-1.82-4.75-2.01c-3.14-1.03-6.47-1.55-9.78-1.47c-3.57,0.08-1.14-3.7,1.24-3.75  c3.89-0.08,7.7,0.34,11.43,1.48C89.99,24.76,91.84,25.49,93.55,26.42z"></path></svg>