<svg height='100px' width='100px'  fill="#000000" xmlns="http://www.w3.org/2000/svg" xmlns:xlink="http://www.w3.org/1999/xlink" version="1.1" x="0px" y="0px" viewBox="0 0 32 32" enable-background="new 0 0 32 32" xml:space="preserve"><g display="none"><rect x="-261.357" y="-129.964" display="inline" fill="#000000" width="430.246" height="214.987"></rect></g><g display="none"><g display="inline"><path fill="#000000" d="M14.695,17.524c0-1.102,0.073-1.56,0.676-2.527l1.227-1.935c0.53-0.853,0.853-1.83,0.853-2.6    c0-1.133-0.624-1.913-1.633-1.913c-1.113,0-1.633,1.04-1.633,2.911v0.853h-2.121c-0.145-0.77-0.281-1.363-0.281-2.122    c0-2.1,1.258-3.764,4.139-3.764c2.87,0,4.295,1.591,4.295,4.035c0,1.373-0.499,2.485-1.57,3.941l-0.832,1.123    c-0.791,1.071-0.832,1.445-0.832,2.61v1.498h-2.298L14.695,17.524z M15.984,21.548c1.03,0,1.633,0.666,1.633,2.038    c0,1.258-0.614,1.986-1.643,1.986c-0.977,0-1.612-0.686-1.612-1.986C14.362,22.13,14.986,21.548,15.984,21.548z"></path></g><circle display="inline" fill="#000000" stroke="#000000" stroke-width="2" stroke-miterlimit="10" cx="16" cy="16" r="15"></circle></g><g display="none"><circle display="inline" fill="none" stroke="#000000" stroke-width="2" stroke-miterlimit="10" cx="16" cy="16" r="15"></circle><g display="inline"><path d="M14.206,19.053l-0.024-0.63c-0.073-1.235,0.34-2.493,1.429-3.801c0.775-0.92,1.404-1.695,1.404-2.517    c0-0.848-0.557-1.405-1.767-1.453c-0.799,0-1.768,0.291-2.397,0.726L12.027,8.74c0.872-0.508,2.324-0.992,4.043-0.992    c3.196,0,4.648,1.767,4.648,3.776c0,1.84-1.139,3.05-2.058,4.068c-0.896,0.992-1.259,1.937-1.235,3.026v0.436H14.206z     M13.577,22.394c0-1.283,0.896-2.203,2.154-2.203c1.308,0,2.155,0.919,2.179,2.203c0,1.259-0.872,2.203-2.179,2.203    C14.448,24.596,13.577,23.653,13.577,22.394z"></path></g></g><g display="none"><circle display="inline" fill="none" stroke="#000000" stroke-width="2" stroke-miterlimit="10" cx="16" cy="16" r="15"></circle><g display="inline"><path d="M14.206,19.053l-0.024-0.63c-0.073-1.235,0.34-2.493,1.429-3.801c0.775-0.92,1.404-1.695,1.404-2.517    c0-0.848-0.557-1.405-1.767-1.453c-0.799,0-1.768,0.291-2.397,0.726L12.027,8.74c0.872-0.508,2.324-0.992,4.043-0.992    c3.196,0,4.648,1.767,4.648,3.776c0,1.84-1.139,3.05-2.058,4.068c-0.896,0.992-1.259,1.937-1.235,3.026v0.436H14.206z     M13.577,22.394c0-1.283,0.896-2.203,2.154-2.203c1.308,0,2.155,0.919,2.179,2.203c0,1.259-0.872,2.203-2.179,2.203    C14.448,24.596,13.577,23.653,13.577,22.394z"></path></g></g><g><path d="M16,0C7.163,0,0,7.163,0,16s7.163,16,16,16s16-7.163,16-16S24.837,0,16,0z M15.731,24.596   c-1.282,0-2.154-0.943-2.154-2.203c0-1.283,0.896-2.203,2.154-2.203c1.308,0,2.155,0.919,2.18,2.203   C17.91,23.653,17.038,24.596,15.731,24.596z M18.661,15.591c-0.896,0.992-1.259,1.937-1.235,3.026v0.436h-3.22l-0.024-0.63   c-0.073-1.235,0.34-2.493,1.429-3.801c0.775-0.92,1.404-1.695,1.404-2.517c0-0.848-0.557-1.405-1.767-1.453   c-0.799,0-1.768,0.291-2.397,0.726L12.027,8.74c0.872-0.508,2.324-0.992,4.043-0.992c3.196,0,4.648,1.767,4.648,3.776   C20.719,13.363,19.58,14.574,18.661,15.591z"></path></g></svg>