<svg height='100px' width='100px'  fill="#000000" xmlns="http://www.w3.org/2000/svg" version="1.1" preserveAspectRatio="none" x="0px" y="0px" viewBox="0 0 100 100"><defs><g id="a"><path fill="#000000" stroke="none" d=" M 78 22.05 Q 66.4 10.45 50 10.45 33.6 10.45 22.05 22.05 10.45 33.6 10.45 50 10.45 66.4 22.05 78 33.6 89.55 50 89.55 64.45 89.55 75.15 80.55 75.65 80.15 76.2 79.65 77.1 78.85 78 78 89.55 66.4 89.55 50 89.55 33.6 78 22.05 M 53.95 48.1 Q 58.7 44.4 58.7 41.25 58.8 38.1 55.2 35.55 51.55 33.45 47 34.65 41.8 36.55 40.55 42.45 L 32.85 40.8 Q 37.35 25.05 53.1 26.75 59.5 27.65 63.7 32.7 67.95 37.75 67.25 42.45 66.5 49.15 59.9 53.85 53.3 58.65 53.8 65 L 45.35 65 45.75 59.05 Q 46.65 52.95 53.95 48.1 M 45.45 67.8 L 53.75 67.8 53.75 76.1 45.45 76.1 45.45 67.8 Z"></path></g></defs><g transform="matrix( 1, 0, 0, 1, 0,0) "></g></svg>