<svg xmlns="http://www.w3.org/2000/svg" xmlns:xlink="http://www.w3.org/1999/xlink" viewBox="0 0 100 125" version="1.1" x="0px" y="0px"><title>Delete 2.3</title><desc>Created with Sketch.</desc><g stroke="none" stroke-width="1" fill="none" fill-rule="evenodd"><g fill-rule="nonzero" fill="#000000"><path d="M70.5010669,26.9434365 L68.6522117,75.938097 C68.5992053,77.3427667 67.3987301,78.5 65.9999745,78.5 L34.0000255,78.5 C32.5981505,78.5 31.4008667,77.3446765 31.3477883,75.938097 L29.4989331,26.9434365 C29.467694,26.1155986 28.7712744,25.4698277 27.9434365,25.5010669 C27.1155986,25.532306 26.4698277,26.2287256 26.5010669,27.0565635 L28.349922,76.051224 C28.4637677,79.068136 30.9839548,81.5 34.0000255,81.5 L65.9999745,81.5 C69.0122556,81.5 71.5362792,79.0668935 71.650078,76.051224 L73.4989331,27.0565635 C73.5301723,26.2287256 72.8844014,25.532306 72.0565635,25.5010669 C71.2287256,25.4698277 70.532306,26.1155986 70.5010669,26.9434365 Z"/><path d="M49,38 L49,72 C49,72.8284271 49.6715729,73.5 50.5,73.5 C51.3284271,73.5 52,72.8284271 52,72 L52,38 C52,37.1715729 51.3284271,36.5 50.5,36.5 C49.6715729,36.5 49,37.1715729 49,38 Z"/><path d="M37.5006484,38.0440986 L38.5006484,72.0440986 C38.5250033,72.8721676 39.2160295,73.5237066 40.0440986,73.4993516 C40.8721676,73.4749967 41.5237066,72.7839705 41.4993516,71.9559014 L40.4993516,37.9559014 C40.4749967,37.1278324 39.7839705,36.4762934 38.9559014,36.5006484 C38.1278324,36.5250033 37.4762934,37.2160295 37.5006484,38.0440986 Z"/><path d="M59.5006484,37.9559014 L58.5006484,71.9559014 C58.4762934,72.7839705 59.1278324,73.4749967 59.9559014,73.4993516 C60.7839705,73.5237066 61.4749967,72.8721676 61.4993516,72.0440986 L62.4993516,38.0440986 C62.5237066,37.2160295 61.8721676,36.5250033 61.0440986,36.5006484 C60.2160295,36.4762934 59.5250033,37.1278324 59.5006484,37.9559014 Z"/><path d="M25,28 L75,28 C75.8284271,28 76.5,27.3284271 76.5,26.5 C76.5,25.6715729 75.8284271,25 75,25 L25,25 C24.1715729,25 23.5,25.6715729 23.5,26.5 C23.5,27.3284271 24.1715729,28 25,28 Z"/><path d="M41.392715,26.557086 L42.462976,23.8814335 C42.7478997,23.1691244 43.7363936,22.5 44.5,22.5 L55.5,22.5 C56.2690864,22.5 57.2501243,23.1641843 57.537024,23.8814335 L58.607285,26.557086 L61.392715,25.442914 L60.322454,22.7672615 C59.579961,20.911029 57.4957913,19.5 55.5,19.5 L44.5,19.5 C42.5097774,19.5 40.4180959,20.9158866 39.677546,22.7672615 L38.607285,25.442914 L41.392715,26.557086 Z"/></g></g><text x="0" y="115" fill="#000000" font-size="5px" font-weight="bold" font-family="'Helvetica Neue', Helvetica, Arial-Unicode, Arial, Sans-serif">Created by Landan Lloyd</text><text x="0" y="120" fill="#000000" font-size="5px" font-weight="bold" font-family="'Helvetica Neue', Helvetica, Arial-Unicode, Arial, Sans-serif">from the Noun Project</text></svg>