<?xml version="1.0" encoding="UTF-8" standalone="no"?>
<svg width="322px" height="420px" viewBox="0 0 322 420" version="1.1" xmlns="http://www.w3.org/2000/svg" xmlns:xlink="http://www.w3.org/1999/xlink" xmlns:sketch="http://www.bohemiancoding.com/sketch/ns">
    <!-- Generator: Sketch 3.4.3 (16618) - http://www.bohemiancoding.com/sketch -->
    <title>puzzle</title>
    <desc>Created with Sketch.</desc>
    <defs></defs>
    <g id="Welcome" stroke="none" stroke-width="1" fill="none" fill-rule="evenodd" sketch:type="MSPage">
        <g id="Desktop" sketch:type="MSArtboardGroup" transform="translate(-280.000000, -135.000000)" stroke="#000000" stroke-width="20" opacity="0.8">
            <g id="icons" sketch:type="MSLayerGroup" transform="translate(40.000000, 94.000000)">
                <g id="puzzle" transform="translate(151.000000, 1.000000)" sketch:type="MSShapeGroup">
                    <path d="M162.041086,355 L90.9985445,355 C89.8947788,355 89,354.109364 89,353.005568 L89,281.303323 L121.779529,281.303323 C127.417942,284.742104 134.052437,286.724875 141.152942,286.724875 C161.637409,286.724875 178.24335,270.222617 178.24335,249.86605 C178.24335,229.509483 161.637409,213.007225 141.152942,213.007225 C133.870025,213.007225 127.07737,215.093179 121.346959,218.696677 L89,218.696677 L89,146.994432 C89,145.892937 89.8963093,145 90.9985445,145 L162.041086,145 L162.041086,134.503845 C149.369014,124.925678 141.172204,109.676087 141.172204,92.5 C141.172204,63.5050506 164.530496,40 193.344408,40 C222.158321,40 245.516613,63.5050506 245.516613,92.5 C245.516613,109.676087 237.319803,124.925678 224.647731,134.503845 L224.647731,145 L295.690272,145 C296.794038,145 297.688817,145.890636 297.688817,146.994432 L297.688817,218.740257 L315.60913,218.740257 C325.187296,206.068184 340.436888,197.871375 357.612975,197.871375 C386.607924,197.871375 410.112975,221.229666 410.112975,250.043579 C410.112975,278.857492 386.607924,302.215783 357.612975,302.215783 C340.436888,302.215783 325.187296,294.018974 315.60913,281.346902 L297.688817,281.346902 L297.688817,353.005568 C297.688817,354.107063 296.792507,355 295.690272,355 L224.647731,355 L224.647731,365.496155 C237.319803,375.074322 245.516613,390.323913 245.516613,407.5 C245.516613,436.494949 222.158321,460 193.344408,460 C164.530496,460 141.172204,436.494949 141.172204,407.5 C141.172204,390.323913 149.369014,375.074322 162.041086,365.496155 L162.041086,355 Z" id="Rectangle-13"></path>
                </g>
            </g>
        </g>
    </g>
</svg>