<?xml version="1.0" encoding="UTF-8" standalone="no"?>
<svg width="14px" height="18px" viewBox="0 0 14 18" version="1.1" xmlns="http://www.w3.org/2000/svg" xmlns:xlink="http://www.w3.org/1999/xlink" xmlns:sketch="http://www.bohemiancoding.com/sketch/ns">
    <!-- Generator: Sketch 3.4.3 (16618) - http://www.bohemiancoding.com/sketch -->
    <title>Rectangle 13</title>
    <desc>Created with Sketch.</desc>
    <defs></defs>
    <g id="Welcome" stroke="none" stroke-width="1" fill="none" fill-rule="evenodd" sketch:type="MSPage">
        <g id="Desktop" sketch:type="MSArtboardGroup" transform="translate(-8.000000, -117.000000)" stroke="#FFFFFF" opacity="0.8">
            <g id="tools" sketch:type="MSLayerGroup" transform="translate(0.000000, -1.000000)">
                <g id="items" transform="translate(0.000000, 34.000000)" sketch:type="MSShapeGroup">
                    <g id="components" transform="translate(0.000000, 79.062500)">
                        <path d="M11.5904467,18.254075 L10.6011564,18.254075 C9.49249646,18.254075 8.59375,17.3634098 8.59375,16.2533681 L8.59375,15.2252708 L9.93766331,15.2252708 C10.169271,15.3663515 10.4417933,15.4476972 10.7334574,15.4476972 C11.5749013,15.4476972 12.2570263,14.77065 12.2570263,13.9354699 C12.2570263,13.1002899 11.5749013,12.4232427 10.7334574,12.4232427 C10.4342913,12.4232427 10.1552644,12.5088269 9.91987306,12.6566736 L8.59375,12.6566736 L8.59375,11.6285763 C8.59375,10.5236164 9.4938504,9.62786945 10.6011564,9.62786945 L11.5904467,9.62786945 L11.5904467,9.19671711 C11.0705427,8.80327314 10.7342477,8.1768631 10.7342477,7.47131806 C10.7342477,6.28028762 11.6925811,5.31476667 12.8747453,5.31476667 C14.0569095,5.31476667 15.015243,6.28028762 15.015243,7.47131806 C15.015243,8.1768631 14.678948,8.80327314 14.1590439,9.19671711 L14.1590439,9.62786945 L15.1483342,9.62786945 C16.2569942,9.62786945 17.1557406,10.5185347 17.1557406,11.6285763 L17.1557406,12.6584637 L17.8888829,12.6584637 C18.2823269,12.1385597 18.9087369,11.8022647 19.6142819,11.8022647 C20.8053124,11.8022647 21.7708333,12.7605981 21.7708333,13.9427623 C21.7708333,15.1249265 20.8053124,16.08326 19.6142819,16.08326 C18.9087369,16.08326 18.2823269,15.746965 17.8888829,15.2270609 L17.1557406,15.2270609 L17.1557406,16.2533681 C17.1557406,17.358328 16.2556402,18.254075 15.1483342,18.254075 L14.1590439,18.254075 L14.1590439,18.6852273 C14.678948,19.0786713 15.015243,19.7050813 15.015243,20.4106264 C15.015243,21.6016568 14.0569095,22.5671778 12.8747453,22.5671778 C11.6925811,22.5671778 10.7342477,21.6016568 10.7342477,20.4106264 C10.7342477,19.7050813 11.0705427,19.0786713 11.5904467,18.6852273 L11.5904467,18.254075 Z" id="Rectangle-13"></path>
                    </g>
                </g>
            </g>
        </g>
    </g>
</svg>